<?xml version="1.0" standalone="no"?><!DOCTYPE svg PUBLIC "-//W3C//DTD SVG 1.1//EN" "http://www.w3.org/Graphics/SVG/1.1/DTD/svg11.dtd"><svg class="icon" width="200px" height="200.00px" viewBox="0 0 1024 1024" version="1.1" xmlns="http://www.w3.org/2000/svg"><path d="M 528.384 559.104 c -12.288 -4.096 -26.624 -4.096 -36.864 -10.24 s -20.48 -20.48 -22.528 -30.72 c -2.048 -8.192 10.24 -22.528 18.432 -26.624 c 12.288 -4.096 26.624 0 38.912 4.096 c 6.144 2.048 10.24 14.336 16.384 18.432 c 8.192 4.096 18.432 6.144 24.576 4.096 c 6.144 -4.096 10.24 -12.288 14.336 -18.432 c -2.048 -6.144 -2.048 -10.24 -4.096 -12.288 c -22.528 -22.528 -43.008 -45.056 -65.536 -65.536 c -4.096 -2.048 -14.336 -2.048 -20.48 2.048 c -18.432 16.384 -36.864 30.72 -53.248 49.152 c -30.72 36.864 -20.48 90.112 24.576 110.592 c 18.432 8.192 38.912 10.24 57.344 20.48 c 10.24 6.144 22.528 18.432 24.576 30.72 c 2.048 10.24 -6.144 24.576 -16.384 32.768 c -18.432 16.384 -45.056 6.144 -63.488 -16.384 c -8.192 -10.24 -22.528 -12.288 -34.816 -18.432 c -2.048 14.336 -8.192 32.768 -2.048 38.912 c 20.48 22.528 45.056 43.008 67.584 61.44 c 4.096 4.096 18.432 -2.048 24.576 -6.144 c 10.24 -6.144 16.384 -16.384 26.624 -22.528 c 32.768 -18.432 45.056 -47.104 40.96 -83.968 c -4.096 -34.816 -28.672 -53.248 -59.392 -61.44 Z" fill="#2b5deb" /><path d="M 501.76 0 C 225.28 0 0 225.28 0 501.76 S 225.28 1003.52 501.76 1003.52 S 1003.52 778.24 1003.52 501.76 S 778.24 0 501.76 0 Z m -100.352 200.704 c 32.768 -2.048 69.632 0 104.448 0 c 32.768 0 63.488 -2.048 96.256 0 c 34.816 2.048 43.008 16.384 24.576 45.056 c -6.144 10.24 -16.384 20.48 -20.48 32.768 c -12.288 24.576 -30.72 32.768 -57.344 30.72 c -18.432 -2.048 -38.912 -4.096 -57.344 0 c -59.392 12.288 -90.112 -20.48 -112.64 -67.584 c -12.288 -24.576 -6.144 -38.912 22.528 -40.96 Z m 352.256 610.304 c -86.016 2.048 -169.984 0 -253.952 0 H 258.048 c -61.44 0 -83.968 -22.528 -75.776 -81.92 c 20.48 -151.552 102.4 -268.288 217.088 -364.544 c 10.24 -8.192 26.624 -10.24 40.96 -10.24 c 34.816 -2.048 69.632 2.048 102.4 -2.048 c 34.816 -2.048 63.488 8.192 86.016 30.72 c 90.112 88.064 159.744 186.368 186.368 313.344 c 2.048 14.336 4.096 28.672 4.096 43.008 c 2.048 49.152 -16.384 69.632 -65.536 71.68 Z" fill="#2b5deb" /></svg>